<svg xmlns="http://www.w3.org/2000/svg" width="1000" height="1000"><svg xmlns="http://www.w3.org/2000/svg" xmlns:xlink="http://www.w3.org/1999/xlink" width="1000" height="1000"/><svg xmlns="http://www.w3.org/2000/svg" width="1000" height="1000" version="1.0" viewBox="0 0 1000 1000"><path fill="#fff4e6" d="M466 209c-10 3-16 8-24 18l-4 6-5 9-6 8-3-7c-14-27-39-30-57-6-2 3-5 6-5 8a330 330 0 0 1-71 74 460 460 0 0 0-67 74l-3 5a420 420 0 0 0-20 43l-2 6-7 27a273 273 0 0 0 11 147 485 485 0 0 1 17 32l11 17 5 6 17 19c7 7 27 23 36 28l5 4c9 6 29 16 38 20l8 4 6 2 5 2 4 2 20 6 7 2 8 2a518 518 0 0 0 218 1 224 224 0 0 0 37-9l7-2a164 164 0 0 0 31-11 348 348 0 0 0 79-47 211 211 0 0 0 73-143 268 268 0 0 0-7-86l-2-9-7-21a340 340 0 0 0-32-58c-9-13-30-36-40-44l-5-3-4-3-4-3-18-13c-29-19-31-21-45-36l-37-36-4-3c-3-3-23-14-31-16-9-3-31-1-35 2l-3 1c-2 0-12 8-17 12l-5 8c-2 5-4 6-5 4l-2-3-6-8c-6-9-21-24-28-27-11-6-13-6-22-6l-10 1z"/></svg><svg xmlns="http://www.w3.org/2000/svg" width="1000" height="1000" version="1.0" viewBox="0 0 1000 1000"><path fill="#eedac4" d="M466 209c-11 4-18 10-30 28l-9 13-3-7c-6-12-15-19-25-22-12-3-27 6-36 22l-10 15c-7 9-35 38-44 46l-9 7-9 8a470 470 0 0 0-57 60l-5 7a272 272 0 0 0-28 227l3 10a223 223 0 0 0 84 100 269 269 0 0 0 62 32l45 13 8 2a330 330 0 0 0 86 9 710 710 0 0 0 162-22 213 213 0 0 0 32-11 342 342 0 0 0 80-47l24-25a211 211 0 0 0 48-118 268 268 0 0 0-19-123 378 378 0 0 0-29-51c-9-13-30-36-41-44l-4-3-4-3-4-3-18-13c-30-19-31-21-46-37a578 578 0 0 0-41-39c-4-3-21-12-28-14-11-4-33-3-38 1l-2 1a52 52 0 0 0-23 21c-1 3-4 5-4 3l-2-3-6-8c-5-8-20-23-26-26-9-5-15-7-24-7l-10 1zm20 13c12 4 19 11 35 33 17 23 32 34 49 36 7 0 10-1 11-6 0-5-3-7-10-7s-15-4-22-10c-5-4-5-5-4-6l3-6c2-5 11-14 19-18 5-2 6-2 17-2s11 0 19 3c15 6 21 11 49 39l31 30 26 18a244 244 0 0 1 112 238c-2 19-8 41-13 50a221 221 0 0 1-83 72 479 479 0 0 1-266 46c-73-10-126-36-159-76-34-41-55-98-55-150a323 323 0 0 1 87-207c19-19 28-30 39-46 11-17 18-22 27-20 4 1 10 7 14 12l6 18-12 19c-13 20-14 23-5 25 4 0 2 2 29-39l26-38c8-9 18-12 30-8zM307 720l-2-1-2-2 2 1 2 2zm18 9-5-2-5-3 5 2 5 3zm4 2h-1c-2 0-2-1-1-1l2 1zm6 3c2 0 3 1 3 2l-5-2c-4-2-4-3 2 0zm7 3h-1c-2 0-2-1-1-1l2 1zm4 2 1 1-3-1v-1l2 1zm5 2 1 1-3-1v-1l2 1zm5 2 1 1-3-1v-1l2 1zm243-331c-11 3-20 9-28 19-5 7-6 10-3 14 3 3 6 3 9-1l6-8c4-5 11-9 16-11a33 33 0 0 1 37 16c5 7 7 8 12 5s2-11-8-20c-6-7-14-11-22-14h-19zm-198 19c-12 4-21 11-27 21-4 8-5 11-1 14 5 4 7 3 12-7 5-11 17-18 29-17 11 0 19 4 27 14 4 6 7 7 11 4s2-10-8-19l-13-8c-6-3-8-4-16-4-7 0-11 0-14 2zm152 23-4 6c-3 7-7 9-15 7-3-1-7-2-9-4l-5-3c-1 0-4 2-6 5-6 6-9 7-15 7-4-1-8-3-11-7-4-7-14-3-11 5 2 4 7 9 12 12 9 4 23 3 31-4 1-2 2-2 5-1 10 5 23 3 30-3 5-5 8-13 6-17-1-2-5-4-8-3zm115 78-24 28c-22 27-26 34-26 44 0 17 18 29 37 25 7-2 21-8 26-12 4-3 4-7 0-10-2-2-2-2-14 4-10 5-12 5-18 6-6 0-8 0-11-2-7-3-8-6-8-12 1-7 3-11 29-42 14-16 22-26 22-28s-4-6-7-6c-1 0-4 2-6 5zm-294 14c-2 1-4 5-3 7l17 22c31 37 34 41 34 48 0 5-6 10-13 12-7 1-12 0-24-6l-12-5c-2 0-5 3-5 7 0 3 2 5 15 11 9 4 11 5 18 6 25 1 40-18 30-39-3-5-40-51-49-60-4-4-4-5-8-3z"/></svg><svg xmlns="http://www.w3.org/2000/svg" width="1000" height="1000" version="1.0" viewBox="0 0 1000 1000"><path fill="#edd6bf" d="M466 209c-11 4-19 11-30 29-8 11-10 14-10 11l-3-7c-7-15-22-24-34-21-10 3-17 9-27 23a244 244 0 0 1-61 66c-30 26-50 46-61 61a266 266 0 0 0-30 262c18 38 42 66 78 89 13 9 14 10 31 19a331 331 0 0 0 83 29 570 570 0 0 0 228-6l15-5 39-13c10-4 40-20 51-27a207 207 0 0 0 97-141l4-38a252 252 0 0 0-121-224 302 302 0 0 1-62-53c-21-22-34-31-51-37-6-2-10-2-18-2-11 0-15 0-25 5-8 4-16 11-20 19-4 7-3 8-12-6a86 86 0 0 0-37-32l-14-2-10 1zm24 15c9 4 16 11 30 28 18 25 31 35 47 38 8 1 13 0 14-4 1-5-2-8-11-8-6 0-15-4-22-11-4-4-4-4-3-6l4-6c2-6 9-12 17-16 6-3 7-4 18-4s12 1 19 4c15 6 22 11 48 38 29 29 33 32 57 48a251 251 0 0 1 108 145c10 38 10 79 2 115s-27 70-52 94c-47 45-112 72-204 83a384 384 0 0 1-97 2c0 3-42-2-74-10-44-10-91-34-124-62a196 196 0 0 1-65-136h2l2 1v-1l4-2c2 0 2-1 2-5l1-4c1 0 2 1 2 3l1 3 1 6 1 6 1 1c-1 3 3 5 4 3h1v4c1 2 0 2-1 2-2 0-2 0-1-1l1-1-3-3c-1 0-1 6 1 10 2 5 2 8 0 8l1 1c1 1 2 1 1 2l1 1v2l1 3c1 2 1 2-1 2l-1 1 2 1c1-1 2 0 2 1l1 2c1 1 1 1-1 1-1-1-2 0-2 1l1 1v2l5 10 7 14 1 1v2l2 2 5 9 4 7 2 3c2 1 3 3 2 3l1 1 4 3 9 10c6 7 7 9 5 9l-1-1c1-1 0-1-1-1l-1-1-1-1-1-1c1-1 0-1-1-1l-1-1v-1c-2 0-4-3-3-3l-1-1-2-1c1-1 0-1-1-1l-1-1h-1l-1-1c1-1 0-2-1-2v-1l-1-1c-2 1-2 5 0 6l4 2 2 2 1 1c-1 1 2 4 3 3h1c-1 1 0 2 1 3v3l-1 2h1c2-2 2-2 6 2 2 3 5 5 6 5v1l1 1c1-1 2 0 1 1h2l1 1c-1 1 2 2 3 2v1l1 1c1-1 2 0 1 1l1 1 3 1 4 3c2-1 3 0 2 1l1 1c1-1 2 0 3 1l3 3c3 0 7 2 8 4 1 1 2 2 3 1v1l1 3h2c1-2 1-2 5 0l4 3 1 1 7 3 9 3 1 2h-2c0 2 1 2 3 1h4l13 5 4 1 3 1c2 0 3 1 1 3-1 1-1 1 0 0h15-2l-2-1c0-1-1-2-3-2h-3l3-1c3-1 7 0 5 1l3 1 4 1 4 1 5 1h4l5 1c3 2 29 5 29 4l3-1h4c0 1 1 2 4 2s3 0 2-1c-2 0-2 0-1-2 1-1 1-1-1-1l-3-1 4-1 5 1 3 1c3 0 3 0 1-1v-1l1-1h-1l-2-2h-2l-2-1v-3c2-3 3-2 2 0 0 2 0 2 1 0l2-1 2 3v-1c0-3 0-3 1-2h2l20 1a569 569 0 0 1 51 2c0-1 1-2 5-2 3 0 4 0 3 1l-2 1 2 1c1-1 2 0 3 1s3 2 3 0l1-2h2c0 2 2 2 4 0 1-1 2-1 3 1 2 2 2 2 3 1 1-2 3 0 3 2 0 3 1 2 1-2 1-5 2-5 3-1v4c-2 1 0 2 4 2h11c1-2 4-2 4-1h2l2 1c5-1 7-2 6-3l1-1 1 1c0 1 3 1 6-1l15-1 1-1 3-2-1-1c-1-1 0-1 5-1h6c0-1 1-2 3-2s3 0 2-1l3-1c4 1 4 1 2-1v-1h5c3-1 3-1-1-1l-6 1h-1c0-1 1-2 3-2l2-1v-2h1c1 2 6 1 6-1 1-1 1-2 2-1l1 1 1 1 1-3 2-1v1c0 1 1 1 2-1 2-2 4-3 7 0 2 2 2 2-1 4l-7 1h-1l5 2c2-1 2-1 0 0-3 2-5 3-5 1 1-1-5-2-8-2-1 1 0 1 1 1 5 0 6 1 4 3h-1l-1-1-1 1c1 1 0 1-2 1-1 0-2 0-1 1s0 1-1 1h-2l-2 1c-1-1-2 0-2 2v1l8-1 3-1 3-1 4-1 1-2 13-5 16-8c5-2 6-4 3-3-1 0-1-1 2-2l5-4 2-2 2-1 2-1 2-1 2-1c1 0 2 0 1-2l1-2v2l1 1 3-3 1-3v4c0 2 0 2 2-1l2-3c0 2 0 2 2 1l1-3c0-1 0-2 1-1l2-1c1-2 7-4 9-4 1 1 2 0 4-1 2-2 2-2-1-1-2 2-3 3-3 1l3-2 3-3h1l1 2h1l1-2c-1-1 0-2 3-1 1 1 2 1 1 2l1 1c1-1 1-2-1-3l-2-2 4-3 3-1c2 2 5 0 5-2l3-3 2-2h1l1-2 2-1 2-3c2 0 7-7 13-15l6-9 1-2 1-1 1-2 2-2h2l-1-1c-2 2-1 0 1-3l-4 5c-4 3-7 7-6 8l-1 1-1 1-1 1-10 7c-16 15-40 31-59 40a474 474 0 0 1-258 43c-70-10-126-36-159-75-29-34-47-75-55-121-2-13-2-50 0-61a354 354 0 0 1 61-150l-18 18 1-2c2-2 2-2-1-1-1 1-2 3-1 4l-1 2v1l-1 1c-1-1-5 4-5 5v3l-1-1v-2c-1-2-1 3 1 5l-1 1h-2l-2 1v-3l-3 2-5 6c-7 7-7 8-6 10 2 1 0 2-2 0h-1l1 2h-3c1 2 0 2-1 2v1c2 0 3 2 1 2v1h-3c-2 0-2 0 0 1 2 2 2 2-1 2h-1c2 1 5 0 8-3l4-3v5l-1-2-2 1c-2 1-3 3-2 3l-1 1-2 3-1 1v3c0 2 0 3-2 4l-2 1c0 3-2 7-3 8-2 1-2 2-1 2l-1 2-2 4c0 1 1 2-1 2h-2c-1-2-1-2-2-1-1 2-3 0-2-1l-1-2-3 5-1 1c-1 0-1-3 1-5l1-2v-1l1-2-1-2-1 2-1 2-1 2v2c-2 1-2 3 0 6v2l-2 3-1 2c-1-1-1-4 1-6 1-2 1-3-1-3l-1 2v2c-2 0-2 4-1 4v5h-5c1 2 0 3-2 2l-1 1c1 1 5 0 5-1h2c0 1 1 2 2 1l1 1-3 1c-1 0-2 0-2 2l-1 3c-1-1-1 0-1 2l-1 4-1 3-1 2-1 3c1 2 0 3-1 3l-1 1-1 1v1l4 2c3 0 4 0 3-1l-1-2c-1-2 0-2 2-2s2 1 2 2l2 1h4l3-1c2 0 2 0 1-1-3-1-2-1 2-1 3 0 3 0 3-2v-3c2-2 3-9 2-9v-1c2 0 2-1 2-3 0-4 3-8 3-5v2h1c2 0 2 5 0 6h-1l-1-3-1 3c0 2 1 3 2 2l1 3c-1 4-1 5-3 4v-3c-2-1-2 1-1 3v1h1l1 2 1 4c1-1 1 0 0 0l-1 2-1 2-1 1c-2 0-1 3 1 5v2c-2 2-3 7-3 10v4l1 2c2 0 0 17-1 19l1 1v7c-2 1-2 3-1 5l1 5v4c1 1 1 2-1 1l-2 1c-2 2-4 1-4-1l1-3 1 1 1 1 1-1 1-2c1-1 1-1-1-3l-3-2c-1 1-1 1-2-13 0-2 0-3-1-2s-1-1-1-1l-1-2c-1 0-2 0-1-2l3-3 2-3v-2h-4l-2 1v2l-1 2h-1c-2 0-3 0-4 2v8l1-2v-4c0-2 0-2 2 0l1 1v-2c1-1 1 0 1 1l1 3v5l1 2c0 2-1 2-3 2l-3-1h-3v1c2 0 2 0 1 2l-2 2c-2 1-2 0-2-4l1-4 1-2c1-2 0-2-4-2-3 0-4 1-4 2l2 1c2 0 1 5-1 6v2c-1 2-2-2-2-6s-1-5-2-2c-2 4-3 3-4-1 0-2 0-3-1-2-1 0-1-1 1-1v-3l-1-5c-1-4 0-7 2-6l-1 2 1 4v-7l-1-2h1c1 1 1 1 1-1v-1l-2-1v-5c-1-2-1-3 1-3l1 2 1 1 1-2v-1l1-2h-1c-2 1-2 1-1-1l-1-2c-1-1-1-5 1-5l1 2c0 2 0 2 1 1v-3l-1-2v-6l2 1h1v-1c-1 1-1 0-1-1v-3c-2 0-2-1-1-2 2-2 4-1 3 1h1c1-1 0-2-1-4-2-1-2-2-1-4l2-1v-1c-1-2 4-15 6-14v-1c-1-2 0-5 1-4l1-1c-1-1 6-16 7-15l1-1c-2-2 17-29 33-47 10-11 21-21 48-45 29-26 47-46 61-66 9-14 15-19 23-19s17 9 22 25c2 5 2 5 0 8-14 20-22 34-22 35l3 4c3 2 3 2 6 1l20-28c28-43 30-47 35-51 6-6 9-7 18-7 5 1 8 1 13 4zM274 368l-2 1h-1v-3h1l2 2zm-2 4-1 1-1-1v-1l2 1zm-7 3-2-1c-1-1-1-1 0 0l2 1zm6-1-1 1-1 1-1 2-1 2h-3v-2l2-1 1-1 2-3 1 1zm-4 13c-1 1-1 1 0 0l1-2-1 2zm-4 2c0 1 0 2-1 1-2 0-2 0-1 2 1 3 0 4-1 1v-4c2-3 3-3 3 0zm-2 12c-1 1-1 1 0 0l1-2-1 2zm-4 4v1l-1 1-1 4c0 2-2 5-3 5v3l-1 3c-1 2-1 2-2 0l1-4 1-3v-2c2 0 3-2 3-5s2-5 3-4v1zm2 2-1 3v1l-1-1c0-2 2-5 3-4l-1 1zm-2 8-2 3v-4c2-2 2-1 2 1zm-20 6-1 2c-1-1-2 0-1 1s0 3-2 3c-2 1-2 0-1-1v-2l1-2 1-2 1-1 2 2zm18 0-2 3v-4l1-1 1 2zm-14 2c-2 1-3 1-3-1 0-1 1-2 2-1 2 0 2 0 1 2zm-2 3-2-1h1c1 0 2 0 1 1zm11 0h1l1-1c2 0 1 4-1 5l-1-1v-1l-2 1c0 1-1 1-1-1v-2c0-2 3-1 3 0zm-11 2h-2v-1l2 1zm-6 3-1 1v-3l1 2zm-2 3-1 1-1-2c0-2 0-2 1-1l1 2zm12-1h-1v-1c0-2 1-1 1 1zm8 1-2 4-1-1-1-2-2-2c0-1 1-2 3-2 3 0 3 1 3 3zm-14 0v1l-1-1v-1l1 1zm-8 11c1 3-1 5-4 5-2 0-2 0 0-1 1 0 2-1 1-2l1-1 1-1h-1c-1 1-1 0-1-1 1-1 2-1 3 1zm4-1-1 2v-2l1-1v1zm-9 8h-3c-1-1 0-1 2-1 1 0 2 0 1 1zm16 0-1 1-3 2c-1 1-3 2-4 1-2-1-5 0-5 2l-3 2c-2 0-2 0 0-1l1-1-5-1 3-1c3 0 3 0 2-1s-1-1 1-1h5l2 1v-2l2-1 3-1 2 1zm-19 7-1 1-1-1 1-1 1 1zm15 0h-2v-1l2 1zm-34 41h-1l1-2v2zm1 16v4h-1v-5l1 1zm6 4c0 2-3 4-4 4s0-6 2-7c1-2 2-2 2 0v3zm15 1-2 1 1-2c2-1 3 0 1 1zm3 1v1c1-1 2 0 2 1l2 5h-1l-1-2-1-1-1-1-1-1v2c2 2 1 2-1 3-3 0-3-1-2-2l1-1-2-1c-1 0-2 0-1 2l-1 3c-1 1-2 0-1-3 0-5 0-6 1-4h3l3-2 1-1v2zm7-1-1 2-1-2 1-1 1 1zm-29 4v1l-2 2c0 2 1 2 2 2h3v1l-1 3c0 2-3 3-3 1l-1 1c-1 2-1 2-1-2v-7c-1-3 0-5 1-3l2 1zm8 3-1 4v-2l-1-1v-3l1-1 1 3zm14 2 1 2 2 1v3c-2 0-2 0 0 2v1h-1l1 2 2 1-2 2-1 3 1 3 2 2v3l-1 5-1 4v-6c0-2 0-4-1-3-1 2-1 1-2-3l-1-4v-9h-1l-2-2c-1-2 0-2 2-2l1-1h-2c-1 0-2 0-2-2s1-3 3-3l2 1zm-7 5h-1l1-2v2zm23 2c0 1-2 0-2-2h2v2zm-30-1-1 1v-1l1-1v1zm7 3-1 2-1-2 2-2v2zm-6 0h-2v-1l2 1zm-11 1h3c3 0 3 0 2 2l1 3 2 1h-1c-1 0-2 2-1 3s0 2-1 3h-5l-3-1 1-1h2l1-1c1 1 2-1 1-2v-3c-1 0-2 0-1-1h-1c-1 0-2 0-2-2s2-3 2-1zm39 1 1 1c2 0 1 2-1 3-4 1-4 1-4-1l-1-4 3-1c2 0 3 0 2 2zm-22 2-1 2v-2l1-1v1zm-17 5-1 2-1-1c-1-1 0-4 1-4l1 3zm29-2-1 1-1-1 1-1 1 1zm14 3c0 2-3 5-5 5l-1-2 2-1c2 1 2 1 1-3 0-3 0-3 1-2l2 3zm-22-1h-2v-1l2 1zm15 3c-1 1-2-1-1-3h1v3zm3-3-1 1-1-1v-1l2 1zm-22 0-1 1h-1l1-1h1zm2 6 1 5 1 3c0 2 0 2-1 0l-1-2c-1-1-2-9-1-10 1-2 2 0 1 4zm24 2 1 3h-1c0-1 0-2-2-2s-3-1-1-2c1-2 2-1 3 1zm-5 0-1 2v-2l1-1v1zm-13 2-1 1v-1l1-1v1zm16 4-1 1-1-1 1-1 1 1zm3 2-1 3v-6l1 3zm-12 6h-2v-1l2 1zm-7 14h-1l1-2v2zm4 26-1 1h-1l1-1h1zm4 8-1 1v-1l1-1v1zm9 14-2 1v-1h2zm2 3-2 2v-2c1-3 2-3 2 0zm4 7-2 1v-1h2zm0 3v1l1 1c-1 0-3-1-2-2l1-1v1zm8 7-3 4 2-5 1 1zm30 5-3-2h1l2 2zm-29-1-2 1c0 1-1 1 0 0l2-1zm3 2-1 1v-1l1-1v1zm36 12h-1l1-2v2zm465 0-2 3-3 1 7-6-2 2zm-487 12-2 1-1-1 2-1 1 1zm3 2-2 1-2-1 3-1 1 1zm3 3 1 2-2-1-2-1-1-1c1-1 2-1 4 1zm4 4h-2v-1l2 1zm3 2h-2v-1l2 1zm412 16-2 1-1-1 2-1 1 1zm-6 2c-2 2-4 3-3 1l2-1 1-1 1-1-1 2zm-16 4c1 0 1 1 0 0l-1-1c0-2 1-1 1 1zm5 1-7 2 2-1 2-1 2-1 2-1 3-1-4 3zm-8 0-4 2c-3 0-3 0-2-1 2-2 8-2 6-1zm-346 1h-2v-1l2 1zm3 2h-2c-1-1 0-1 1-1l1 1zm341 1h-2l-3-1 5 1zm-333 3h-2c-1-1 0-1 1-1l1 1zm333 0c0 1-2 2-3 1l1-1h2zm-329 2h-2c-1-1 0-1 1-1l1 1zm5 2h-3c-1-1 0-1 1-1 2 0 3 0 2 1zm290 1-1 2-1-2 1-2 1 2zm-285 0c1 1 0 1-2 1-3 0-3 0-1-1l3-1v1zm277 1h3c2 0 2 0 1 1l-4 1c-1 1-2 0-2-1l1-2 1 1zm-271 1-3 1c-2 0-2 0-1-1h4zm260 0v1l-1-1v-1l1 1zm-254 3 2 1c1-1 2 0 3 1l2 1h3c2 1 1 1-3 1s-5 0-4-1c2-1 2-1-1-1l-4-1-2-1c-3 0-3 0-2-1 2-1 6-1 6 1zm257-1-1 2v-2l1-1v1zm-10 2-1 2v-2l1-1v1zm-169 2v2c1 1 0 1-1 1-2 0-2-2-1-3h2zm106-1c0 1-5 2-6 1l3-1h3zm-103 2-1 2v-2l1-1v1zm129 1c0 2-1 2-1 1v-2c2-1 2-1 1 1zm-6 1-1 1-1-1 2-1v1zm10 1 1-1c2 1 0 3-2 3-1 0-2-1-1-2h2zm-6 2v1l-1-1v-1l1 1zm19 0c1 1 0 1 0 0-2 0-3-1-1-1l1 1zM251 390c-1 2 0 3 1 3l1-1v-1l1-1h-3zm-3 3 1 2c-1 1-1 1 0 0s1-3-1-3v1zm-2 2 1 1v-1l-1-1v1zm-4 3v1l3 1-2 1c-1-1-3 0-4 1-2 2-2 2 0 3s2 1 1 2v1l-1 1v1l-1 1-1-3v-1c-1 1-2 3-1 5v1l2 1h1v-2l2-3 1-2 3-4v-5l-1-1v-1l-2 1zm1 6c-2 1-3 1-2-1l1-1c2 0 2 0 1 1zm3-6 2 1v-1l-1-1v1zm6 0 1 1 1-1-1-1-1 1zm-6 7 2 1c0 1 1 1 0 0l-2-1zm-1 3 1 1v-1l-1-1v1zm356 4c-9 2-19 7-25 14-8 8-11 13-9 17 1 2 5 4 7 3l6-6c7-10 17-16 28-16 12 0 23 7 29 18 4 6 6 7 10 4 3-2 4-5 1-10-8-16-29-27-47-24zm-201 19c-8 3-14 7-20 14-5 6-10 15-10 18l4 4c3 2 6 0 10-7a33 33 0 0 1 57-3c2 3 5 5 6 5 2 0 7-4 7-6 0-4-8-14-16-19-12-8-26-10-38-6zm-177 1 1 1 1-1v-2l-2 2zm-5 8 1 1 1-1v-1l-2 1zm-3 10c-1 2 1 4 2 3l-1-1v-1l1-1 1-1c-2-2-3-1-3 1zm334 10c-3 7-7 9-15 7l-9-4-5-3-7 7-3 3c-7 4-17 2-21-5-3-3-5-4-8-3-9 4 0 18 14 22 8 2 17 0 23-6 3-2 3-2 10 0 14 4 26 0 31-10 4-8 2-14-4-14-3 0-3 1-5 5zm-328 3 1 1 1-1-1-1-1 1zm14 1-3 3c1 2 1 2-3 1-2 0-2 0-1-1v-1l-1 1-4 1c-2 0-2 0-1 1 2 1 2 1 0 1-1 0-2 0-1 2l1 1c0-2 3-1 5 1h1c-1-2-1-2 1-1 3 0 3 0 1-1-2-2-2-2 0-2l5 1v1l-2 1-1 2c-2 2-2 5 0 3l1 1v1l2-2 4-2c2 0 2-2 0-4h-1l-1-1c-1-3 0-5 2-5 1 1 3-1 3-2 0-2-4-1-7 0zm-19 4h2l-2-1v1zm-3 3c-1 2 0 3 1 2 1 0 2-4 0-4l-1 2zm3-1 1 1v-1l-1-1v1zm0 5c0 2 0 2 1 0v-3l-1 3zm9 4 4 1 2 2v1c2 0 1-2-1-3l-4-2c-2 0-2 0 0 1zm-13 1v1l1-1v-1l-2 1zm7 2 2 2v-1c-3-1-1-2 3-2h2l-4-1c-2 0-3 0-3 2zm15 0-1 2-2 2c-1 2 0 2 1 2 3 0 8-5 7-6h-2l-1 1c0 1-1 1-1-1h-1zm-11 7c0 1 1 3 2 1h6c0-2-6-3-7-1zm-13 1h2v-1l-2 1zm9 1 1 1 2-1-1-1-2 1zm-3 3v1h2l2-1c1-1 1-1-1-1l-3 1zm21 2h1l1-1-1-1-1 2zm-18 3c0 2 0 2-1 1s-1-1-1 1 1 3 2 3l1-1v-5c-1-1-1-1-1 1zm-10 2c-2 3-3 5-1 4 2 0 4-4 3-5l-2 1zm9 6h2l-2-1v1zm7 1v2l1-2v-1l-1 1zm-4 4-1 1h1l1-2-1 1zm3 0 1 1 2-1-1-1-2 1zm13 4c-1 2 1 3 3 2 1-1 0-2-1-3s-2-1-2 1zm434 13c-4 3-42 49-46 55-10 15-10 28 1 37 6 6 12 8 21 8 7 0 10 0 16-3l15-7c5-3 6-4 6-7s-3-6-6-6l-9 4c-9 5-14 7-22 7-6 0-13-2-15-6-3-4-2-11 1-17l21-26c30-37 28-34 25-38-3-3-6-3-8-1zm-297 18-3 4c0 2 7 11 21 28 25 30 26 31 28 36 3 6 2 10-1 14-7 9-18 9-36-1l-10-4c-2 0-5 3-5 6 0 5 10 11 24 16 20 7 42-5 42-24 0-10-4-16-29-46-20-25-26-31-28-31l-3 2zm-167 11-2 1c-2 0-2 0-1 1l1 2h1v-1h5l-2-1v-3l-2 1zm-1 9h1l1-1h-1l-1 1zm0 4 2 2v-3c-1-1-2 0-2 1zm1 5 1 2c1 2 1 2 1 0l-1-3-1 1zm3 11h1v-2l-1 2zm1 3 2 1c1-1 0-1-1-1h-1zm1 3 1 1v-1l-1-1v1zm2 6 1 1v-1l-1-1v1zm2 6 1 1v-1l-1-1v1zm3 9 1 1-1-1c-1-1-1-1 0 0zm3 4v4-4zm1 7 2 4c1 2 2 3 2 1l-2-3-1-2v-1l-1 1zm7 2 1 2v3l2 3 1 1 1 3v1c1-1 2 0 3 2 1 3 3 4 3 1 0-1-1-2-2-1l-1-2c1-2 0-3-1-2s-1 0 0-1c0-2 0-2-1-1-2 0-2-1-2-2 1-2 0-3-1-2l-1-1-1-2v-2h-1zm3 16h1l1-1h-1l-1 1zm2 3 1 1-1-1c-1-1-1-1 0 0zm7 0v4l2 2c1-4 0-5-1-4v-1c0-2-1-3-1-1zm3 6-1 3 1 1c2-1 2-1 2 1v1h2l1 3c2 2 3-1 2-3l-1-2-1-1c-1 0-2 0-2-2-2-2-2-2-3-1zm-6 1 1 1 1-1h-2zm4 5c2 3 4 3 4 1h-1l-3-1c-3-3-3-3 0 0zm512 19v3l2 1-1-2v-1h3c0-2-3-2-4-1zm-482 13 2 2c1 1 1 1 0 0l-2-2zm460 1c-1 2 0 2 2 1v-1h-2zm-4 2v3c0 1 1 1 0 0l1-2 1-2-2 1zm-6 7 1 1 1-1v-1l-2 1zm5 3h1v-2l-1 2zm-12 1h2c1 0 1-1-1-1l-1 1zm-3 1-4 3-3 3 10-6h-3zm-14 9h1l1-1h-1l-1 1zm-379 5 2 3c2 1 2 1 0-1l-2-3v1zm345 3c-2 1-2 1 1 1 2 0 3 0 2-1v-1l-3 1zm-333 3h-1l-1 1 1 1 2 1 2 1 2 1 2 1 2-1-1-1-2-1-2-1c-1 1-2 0-2-1l-2-1zm15 9c-1 1-1 1 1 1l3-2h-2l-2 1zm4 2 2 1c3 0 3-1 0-2l-2 1zm289 0-1 1h-3c-1 2-1 2 3 2l2 1 1-1c1-3 0-4-2-4v1zm-176 2h1l1-1h-1l-1 1zm73 0v2h1c2-3 0-4-1-2zm94 1c-1 3 0 3 2 1v-2l-2 1zm-7 2v2l1 1h2l1 1c0-1-1-4-2-3v-1l-1-2-1 2zm-236 2 2 2h1l2 1v-2l-2-2-1-1-2 2zm82 0 1 1h1l-2-1zm91 0h1l1-1h-1l-1 1zm54 0v3l1-2c1-2 0-3-1-1zm-57 2v1c1 1 2 0 1-1h-1zm-155 2v2h2v-2c-1-3-2-2-2 0zm162-1 1 1 1-1-1-1-1 1zm-171 1h1c2 0 2-1 1-1l-2 1zm22 1v3c3 0 3-1 1-3h-1zm182 1v1l2-1-1-1-1 1zm-173 1 1 1 1-1v-1l-2 1zm161 0-1 1h1l1-2-1 1zm-119 1h3c1-1 0-1-2-1-1 0-2 0-1 1zm105 0-2 2c2 1 5 0 5-2v-1l-3 1zm-13 3-1 1 5-2c0-1-1-1-4 1zm-10 0-2 1h-4v1c2 1 7 0 7-2h-1zm5 1h2l-2-1v1zm-92 1 1 1 2-1-2-1-1 1zm66 0c-2 0-2 1-1 1h1l1 1h2c1-2-1-3-3-2zm-55 2c0 2 0 3 2 3 2-1 2-5 0-5l-2 2zm38-1-1 1 3-1v-1l-2 1zm-31 5h2l-2-1v1zM224 531l1 1v-1l-1-1v1z"/></svg><svg xmlns="http://www.w3.org/2000/svg" width="1000" height="1000" version="1.0" viewBox="0 0 1000 1000"><path fill="#c9ab8b" d="M465 209c-11 4-17 10-29 28l-9 13-2-4c-6-16-23-28-36-25-10 3-18 9-27 24a266 266 0 0 1-65 70c-24 20-45 41-55 54-37 45-55 100-55 161a226 226 0 0 0 124 206c39 22 88 36 140 41 18 2 72 2 91 0 103-9 179-38 231-88 13-12 30-34 39-52a244 244 0 0 0-17-243c-24-35-39-51-79-78-26-17-31-21-55-46-25-25-34-32-48-39-12-6-18-8-30-7-9 0-12 0-17 2-13 5-22 13-27 23l-3 5-8-10a94 94 0 0 0-32-31c-8-4-10-4-18-5l-13 1zm22 13c11 4 18 11 35 33 12 17 21 25 32 30 7 4 9 4 16 5 8 0 9 0 10-5 2-4-2-6-10-7-7-1-15-5-22-11l-4-3 3-7c7-13 17-20 30-22 11-1 19 0 31 6 15 7 22 13 46 39 18 18 31 30 50 43a238 238 0 0 1 103 296c-15 35-37 61-71 86a316 316 0 0 1-102 45c-27 6-50 11-88 15a415 415 0 0 1-191-22c-48-18-85-44-110-74-31-38-46-84-46-135 0-58 14-105 42-145 16-21 33-39 69-71a305 305 0 0 0 72-79c12-13 27-6 34 16l3 8-7 10c-17 27-17 27-16 30 2 4 7 4 10 1l19-29c31-47 32-49 39-53 7-3 14-3 23 0zm107 192c-8 3-17 9-22 16-5 8-6 10-4 13 2 4 6 4 9 0 9-12 15-16 24-19 14-3 28 4 36 17l5 6c2 1 6-1 7-4 1-2 1-3-1-7-4-8-13-16-22-20-6-3-8-4-16-4s-11 0-16 2zm-191 16c-12 4-24 13-30 25-3 7-3 10 2 12 2 1 3 1 5-2l6-9c4-6 12-12 19-14 6-2 16-1 22 2 5 2 12 8 15 14 3 4 5 5 9 3 5-4 3-9-6-18a45 45 0 0 0-42-13zm149 26-3 5-4 5c-4 4-14 2-20-3l-5-3-4 3c-5 6-7 8-11 9-5 1-11 0-16-6-4-4-8-5-10-2-3 2-2 5 1 10 4 6 13 10 21 10 7 0 14-3 18-6 2-2 2-2 8 0 12 4 24 1 30-8 4-5 5-11 3-14-3-3-6-3-8 0zm116 76-43 53c-8 12-9 20-4 29 4 9 14 15 26 15 8 0 14-2 25-7 8-4 12-7 12-10 0-2-3-6-5-6l-11 5c-16 8-27 9-34 1-5-4-6-7-4-13 3-6 5-9 28-37a797 797 0 0 0 22-31c-3-4-6-4-12 1zm-296 16v5l15 19c33 40 35 43 35 51 0 6-5 10-12 12-8 2-12 1-26-6l-11-5c-2 0-5 4-5 6 0 3 4 6 14 11 14 7 21 8 33 5 5-2 7-3 12-8 7-7 9-15 5-25-2-7-6-12-31-41-19-23-21-26-24-26l-5 2z"/></svg><svg xmlns="http://www.w3.org/2000/svg" width="1000" height="1000" version="1.0" viewBox="0 0 1000 1000"><path fill="#bb8456" d="M467 209c-12 4-20 11-31 29l-9 13-2-5c-3-7-11-17-17-21-6-3-7-4-13-4-14 0-21 6-34 26-15 22-29 37-60 63-40 36-55 51-72 77-24 35-36 71-41 116-4 49 3 94 23 133 19 38 43 64 81 89 72 47 172 64 286 48 50-8 93-20 129-39 19-9 27-14 43-26 47-35 74-82 84-145a257 257 0 0 0-119-246c-26-18-31-23-53-45-28-30-40-39-60-45-20-7-41-3-56 12l-7 10-3 5-9-11c-13-18-24-28-38-33-7-2-16-3-23-1zm19 12c13 5 19 10 35 32 11 15 18 22 26 28s16 8 24 8 9 0 9-5c0-4-2-5-10-5-7-1-16-5-23-12-4-4-4-4-3-6l4-6c7-16 28-25 47-20 7 2 18 8 26 13 4 2 17 15 31 29 27 28 34 34 57 49l24 16c39 29 72 81 84 130 12 48 10 95-6 137-15 42-40 72-81 99-28 19-61 33-104 44-44 11-95 17-141 16-77-2-138-20-194-57a208 208 0 0 1-93-171c-1-65 15-116 51-162 10-13 34-37 55-55 35-30 54-50 67-72 14-21 25-25 37-11 4 4 11 18 11 22a273 273 0 0 1-23 38c-1 1 3 6 6 6 2 0 11-12 43-63l11-15c9-9 18-11 30-7zm111 193c-11 2-21 10-27 20-3 5-4 8-1 10 3 3 6 2 10-4 11-16 27-21 43-14 6 4 11 8 16 16 3 5 6 6 9 3 3-2 2-6-1-11a45 45 0 0 0-49-20zm-189 16c-12 2-24 9-30 17-7 11-9 17-4 19 4 2 6 1 9-6 6-12 18-19 29-19s21 4 29 14c5 6 7 8 10 4 3-3 2-5-1-10-6-8-17-16-26-18-5-1-13-2-16-1zm145 25-3 4c-3 7-5 9-11 9s-11-2-14-4c-3-4-6-4-11 2-4 4-6 6-9 7-6 1-11-1-16-7-4-4-5-4-7-4-2 1-4 2-4 4-1 2-1 3 2 6 9 13 27 16 38 5 3-2 3-2 9 0 14 5 27 1 32-10 3-6 3-8 0-11-3-2-3-2-6-1zm109 85c-36 42-40 48-43 57-2 9 0 17 7 23 10 11 26 12 43 3 11-5 14-8 14-11l-2-4c-2-2-2-2-13 3-9 5-13 6-18 7-7 0-14-2-18-7-6-7-3-14 20-41 23-29 28-35 28-37s-4-5-6-5l-12 12zm-289 9c-2 2-2 2 0 5l20 25c22 27 24 29 27 35 4 8 3 13-4 19-3 2-4 3-11 3-8 0-9-1-20-6-12-6-12-6-15-3l-2 3c0 4 8 9 19 14 9 3 16 4 23 3 8-2 12-4 17-8 5-6 6-9 6-16 0-11-3-16-27-45-29-35-29-35-33-29z"/></svg></svg>